<svg viewBox="0 0 10 10" fill="none" xmlns="http://www.w3.org/2000/svg">
<path d="M4.00003 7.49615C4.85274 7.49615 5.62794 7.19383 6.23259 6.6822L8.94577 9.39538C9.00778 9.45739 9.0853 9.4884 9.17057 9.4884C9.25585 9.4884 9.33336 9.45739 9.39538 9.39538C9.51941 9.27135 9.51941 9.0698 9.39538 8.94577L6.6822 6.23259C7.18608 5.62794 7.49615 4.84499 7.49615 4.00003C7.49615 2.0698 5.93026 0.503906 4.00003 0.503906C2.07755 0.503906 0.503906 2.07755 0.503906 4.00003C0.503906 5.93026 2.07755 7.49615 4.00003 7.49615ZM4.00003 1.13957C5.58143 1.13957 6.8605 2.42639 6.8605 4.00003C6.8605 5.58143 5.58143 6.8605 4.00003 6.8605C2.41864 6.8605 1.13957 5.57367 1.13957 4.00003C1.13957 2.42639 2.42639 1.13957 4.00003 1.13957Z" fill="inherit"/>
</svg>
